<svg xmlns="http://www.w3.org/2000/svg" width="300" height="350" viewBox="0 0 300 350">
  <metadata><?xpacket begin="﻿" id="W5M0MpCehiHzreSzNTczkc9d"?>
<x:xmpmeta xmlns:x="adobe:ns:meta/" x:xmptk="Adobe XMP Core 5.6-c140 79.160451, 2017/05/06-01:08:21        ">
   <rdf:RDF xmlns:rdf="http://www.w3.org/1999/02/22-rdf-syntax-ns#">
      <rdf:Description rdf:about=""/>
   </rdf:RDF>
</x:xmpmeta>
                                                                                                    
                                                                                                    
                                                                                                    
                                                                                                    
                                                                                                    
                                                                                                    
                                                                                                    
                                                                                                    
                                                                                                    
                                                                                                    
                                                                                                    
                                                                                                    
                                                                                                    
                                                                                                    
                                                                                                    
                                                                                                    
                                                                                                    
                                                                                                    
                                                                                                    
                                                                                                    
                           
<?xpacket end="w"?></metadata>
<defs>
    <style>
      .cls-1 {
        fill: #fff;
      }

      .cls-2, .cls-3 {
        fill: #5d59cb;
      }

      .cls-2 {
        fill-rule: evenodd;
        opacity: 0.28;
      }

      .cls-3 {
        font-size: 90px;
        text-anchor: middle;
        font-family: FontAwesome5FreeSolid, "Font Awesome 5 Free";
      }
    </style>
  </defs>
  <rect id="Rounded_Rectangle_1" data-name="Rounded Rectangle 1" class="cls-1" width="300" height="349" rx="5" ry="5"/>
  <path class="cls-2" d="M145.158,70.233a59.421,59.421,0,0,1,6.2,2.168c0.513,0.192,1.03.38,1.555,0.558s1.06,0.347,1.607.5a26.412,26.412,0,0,0,3.463.738c4.77,0.786,11.4-.109,17.8-1,14.291-2.6,22.288-.952,28.9,4.464,2.3,0.763,2.978,2.955,2.312,7.237q-0.25,1.6-.754,3.6-0.25,1-.565,2.094t-0.689,2.294c-1,3.19-2.339,6.92-4.023,11.121-6.341,16.395-20.245,42.495-34.491,56.849-6.711,7.862-12.947,12.549-17.514,13.909a8.938,8.938,0,0,1-5.927.013,10.963,10.963,0,0,1-4.361-3.338c-4.713-6.426-9.994-15.882-15.343-21.217-9.146-9.83-21.947-14.193-27.086-21.121a15.763,15.763,0,0,1-2.817-5.621q-0.213-.769-0.357-1.564t-0.222-1.6a19.093,19.093,0,0,1-.036-3.234c0.388-4.282,1.944-8.285,7.119-9.682,9.953-2.261,17.732-15.126,23.873-24.625,6.307-9.674,13.405-16.1,21.36-12.539h0Z"/>
  <text id="pen-alt_" data-name="pen-alt " class="cls-3" x="150.368" y="147.785"><tspan x="150.368">pen-alt</tspan></text>
</svg>
