<?xml version="1.0" standalone="no"?>
<!DOCTYPE svg PUBLIC "-//W3C//DTD SVG 20010904//EN"
 "http://www.w3.org/TR/2001/REC-SVG-20010904/DTD/svg10.dtd">
<svg version="1.0" xmlns="http://www.w3.org/2000/svg"
 width="500.000000pt" height="500.000000pt" viewBox="0 0 500.000000 500.000000"
 preserveAspectRatio="xMidYMid meet">
<metadata>
Created by potrace 1.11, written by Peter Selinger 2001-2013
</metadata>
<g transform="translate(0.000000,500.000000) scale(0.100000,-0.100000)"
fill="#000000" stroke="none">
<path d="M2405 4736 c-22 -7 -182 -83 -355 -168 -654 -322 -880 -433 -1045
-513 -463 -225 -598 -295 -627 -327 -52 -57 -63 -87 -62 -168 l0 -75 111 -225
c335 -680 477 -969 583 -1185 120 -246 264 -540 550 -1120 212 -432 230 -470
230 -489 0 -27 39 -96 54 -96 7 0 25 -9 39 -20 14 -11 32 -17 41 -14 18 7 53
-4 206 -63 132 -51 294 -97 298 -84 7 20 29 42 47 45 11 3 56 22 100 44 44 21
91 43 104 47 13 4 161 75 330 157 168 83 387 190 486 238 99 48 351 172 560
275 209 103 413 202 452 221 130 60 194 158 180 274 -6 48 -73 189 -606 1269
l-90 184 24 25 c47 47 56 124 23 198 -50 115 -109 164 -196 164 l-42 0 -74
153 c-40 83 -164 336 -275 560 -111 225 -201 411 -201 414 0 17 -69 87 -108
111 -39 22 -59 27 -117 27 -63 0 -80 -5 -168 -47 l-97 -47 -40 78 c-56 113
-119 160 -219 167 -32 2 -73 -2 -96 -10z m125 -151 c19 -10 39 -37 63 -87 l35
-73 -36 -17 c-21 -9 -95 -44 -165 -77 -71 -34 -130 -61 -132 -61 -2 0 -74 -34
-160 -75 -87 -41 -158 -75 -160 -75 -2 0 -56 -25 -121 -56 -66 -31 -181 -85
-256 -120 -76 -35 -177 -82 -225 -105 -394 -184 -516 -239 -534 -239 -12 0
-42 7 -68 15 -25 9 -79 26 -120 40 l-75 24 185 89 c173 84 290 142 994 487
407 200 678 331 695 338 26 10 50 7 80 -8z m539 -150 c30 -15 43 -41 326 -620
67 -137 157 -318 198 -402 l77 -152 -233 -120 c-231 -119 -276 -150 -296 -204
-24 -62 -14 -104 46 -209 25 -43 43 -61 79 -78 80 -39 112 -28 481 166 56 30
104 54 107 54 3 0 53 -96 110 -212 57 -117 184 -375 281 -573 264 -536 295
-602 295 -626 0 -50 -30 -75 -174 -145 -78 -37 -328 -160 -556 -272 -228 -112
-507 -249 -620 -304 -113 -55 -295 -144 -405 -198 -261 -128 -266 -129 -311
-105 -27 14 -43 35 -68 89 -19 39 -34 78 -34 86 1 8 -37 92 -82 185 -45 94
-108 224 -140 290 -55 114 -107 222 -277 575 -42 85 -104 214 -138 285 -34 72
-97 202 -140 290 -43 88 -101 210 -130 270 -29 61 -104 216 -167 345 -63 129
-132 272 -153 317 -21 45 -42 80 -46 77 -4 -2 -12 10 -18 28 -6 18 -19 44 -28
58 -15 23 -66 152 -60 155 1 1 117 54 257 120 140 65 300 140 355 165 55 26
125 59 155 72 30 14 98 46 150 71 115 54 212 99 390 182 74 34 183 85 241 113
58 27 134 62 167 77 34 15 60 32 59 38 -1 6 45 35 103 64 138 69 152 73 199
48z m-2474 -921 c39 -14 86 -28 105 -33 19 -4 45 -13 57 -19 12 -7 35 -12 51
-12 25 0 33 -7 51 -45 12 -25 21 -53 21 -63 0 -11 13 -39 30 -63 16 -24 30
-47 30 -51 0 -6 51 -114 237 -498 42 -85 104 -213 138 -285 34 -71 102 -211
150 -310 48 -99 109 -225 135 -280 26 -55 89 -185 140 -290 51 -104 116 -239
145 -300 29 -60 105 -218 170 -350 64 -132 117 -249 118 -260 1 -11 7 -26 14
-34 8 -7 19 -33 25 -57 7 -24 15 -44 19 -44 4 0 25 -33 46 -73 l39 -74 -165
42 c-158 40 -166 43 -198 80 -19 22 -36 51 -39 65 -6 25 -44 104 -322 670
-186 379 -372 758 -537 1095 -68 138 -200 408 -295 600 -249 506 -300 612
-300 620 0 9 53 -3 135 -31z m3169 -451 c15 -31 25 -57 24 -58 -2 -1 -57 -29
-123 -63 -66 -33 -166 -84 -222 -112 -79 -41 -106 -50 -116 -41 -22 18 -51 91
-41 101 10 10 435 229 446 230 3 0 18 -25 32 -57z"/>
</g>
</svg>
